<svg aria-hidden="true" style="position: absolute; width: 0; height: 0; overflow: hidden;" version="1.1" xmlns="http://www.w3.org/2000/svg" xmlns:xlink="http://www.w3.org/1999/xlink">
<defs>
<symbol id="icon-bg-dots" viewBox="0 0 2240 32">
<path fill="#495dcf" opacity="0.2" d="M0 32c-8.837 0-16-7.163-16-16s7.163-16 16-16v0c8.837 0 16 7.163 16 16s-7.163 16-16 16v0zM2240 32c-8.837 0-16-7.163-16-16s7.163-16 16-16v0c8.837 0 16 7.163 16 16s-7.163 16-16 16v0zM2104 32c-8.837 0-16-7.163-16-16s7.163-16 16-16v0c8.837 0 16 7.163 16 16s-7.163 16-16 16v0zM1824 32c-8.837 0-16-7.163-16-16s7.163-16 16-16v0c8.837 0 16 7.163 16 16s-7.163 16-16 16v0zM1544 32c-8.837 0-16-7.163-16-16s7.163-16 16-16v0c8.837 0 16 7.163 16 16s-7.163 16-16 16v0zM1264 32c-8.837 0-16-7.163-16-16s7.163-16 16-16v0c8.837 0 16 7.163 16 16s-7.163 16-16 16v0zM1120 32c-8.837 0-16-7.163-16-16s7.163-16 16-16v0c8.837 0 16 7.163 16 16s-7.163 16-16 16v0zM984 32c-8.837 0-16-7.163-16-16s7.163-16 16-16v0c8.837 0 16 7.163 16 16s-7.163 16-16 16v0zM1960 32c-8.837 0-16-7.163-16-16s7.163-16 16-16v0c8.837 0 16 7.163 16 16s-7.163 16-16 16v0zM1680 32c-8.837 0-16-7.163-16-16s7.163-16 16-16v0c8.837 0 16 7.163 16 16s-7.163 16-16 16v0zM1400 32c-8.837 0-16-7.163-16-16s7.163-16 16-16v0c8.837 0 16 7.163 16 16s-7.163 16-16 16v0zM840 32c-8.837 0-16-7.163-16-16s7.163-16 16-16v0c8.837 0 16 7.163 16 16s-7.163 16-16 16v0zM704 32c-8.837 0-16-7.163-16-16s7.163-16 16-16v0c8.837 0 16 7.163 16 16s-7.163 16-16 16v0zM560 32c-8.837 0-16-7.163-16-16s7.163-16 16-16v0c8.837 0 16 7.163 16 16s-7.163 16-16 16v0zM424 32c-8.837 0-16-7.163-16-16s7.163-16 16-16v0c8.837 0 16 7.163 16 16s-7.163 16-16 16v0zM280 32c-8.837 0-16-7.163-16-16s7.163-16 16-16v0c8.837 0 16 7.163 16 16s-7.163 16-16 16v0zM144 32c-8.837 0-16-7.163-16-16s7.163-16 16-16v0c8.837 0 16 7.163 16 16s-7.163 16-16 16v0z"></path>
</symbol>
<symbol id="icon-arrow" viewBox="0 0 48 32">
<path fill="none" stroke-linejoin="miter" stroke-linecap="butt" stroke-miterlimit="4" stroke-width="8" d="M2.667 2.667l21.333 21.333 21.333-21.333"></path>
</symbol>
<symbol id="icon-close" viewBox="0 0 34 32">
<path d="M17.067 11.475l11.313-11.315 4.527 4.527-11.317 11.313 11.315 11.313-4.527 4.527-11.311-11.317-11.313 11.315-4.527-4.527 11.317-11.311-11.317-11.313 4.527-4.527 11.313 11.317z"></path>
</symbol>
<symbol id="icon-error" viewBox="0 0 32 32">
<path fill="#fa5959" d="M32 16c0 8.837-7.163 16-16 16s-16-7.163-16-16c0-8.837 7.163-16 16-16s16 7.163 16 16z"></path>
<path fill="#fff" d="M16 8c0.884 0 1.6 0.716 1.6 1.6v8c0 0.884-0.716 1.6-1.6 1.6s-1.6-0.716-1.6-1.6v-8c0-0.884 0.716-1.6 1.6-1.6z"></path>
<path fill="#fff" d="M16 20.8c0.884 0 1.6 0.716 1.6 1.6s-0.716 1.6-1.6 1.6c-0.884 0-1.6-0.716-1.6-1.6s0.716-1.6 1.6-1.6z"></path>
</symbol>
<symbol id="icon-facebook" viewBox="0 0 32 32">
<path d="M30.233 0h-28.467c-0.976 0-1.767 0.791-1.767 1.767v28.468c0 0.975 0.791 1.765 1.767 1.765h15.327v-12.392h-4.171v-4.829h4.171v-3.561c0-4.133 2.524-6.384 6.212-6.384 1.767 0 3.284 0.132 3.727 0.191v4.32l-2.557 0.001c-2.005 0-2.393 0.953-2.393 2.351v3.084h4.783l-0.623 4.829h-4.16v12.391h8.155c0.973 0 1.764-0.791 1.764-1.767v-28.467c0-0.976-0.791-1.767-1.767-1.767z"></path>
</symbol>
<symbol id="icon-hamburger" viewBox="0 0 38 32">
<path d="M0 0h38.4v6.4h-38.4v-6.4zM0 12.8h38.4v6.4h-38.4v-6.4zM0 25.6h38.4v6.4h-38.4v-6.4z"></path>
</symbol>
<symbol id="icon-twitter" viewBox="0 0 38 32">
<path d="M38.4 4.091c-1.318 0.6-2.846 1.037-4.449 1.232l-0.076 0.008c1.63-0.986 2.855-2.501 3.448-4.303l0.016-0.056c-1.44 0.87-3.116 1.533-4.902 1.895l-0.101 0.017c-1.439-1.533-3.478-2.488-5.74-2.488-0.004 0-0.007 0-0.011 0h0.001c-5.086 0-8.824 4.746-7.675 9.672-6.562-0.338-12.335-3.457-16.205-8.19l-0.032-0.040c-0.671 1.135-1.067 2.502-1.067 3.961 0 2.722 1.379 5.122 3.476 6.539l0.028 0.018c-1.316-0.043-2.538-0.403-3.606-1.006l0.039 0.020c-0.086 3.65 2.53 7.064 6.318 7.824-0.621 0.175-1.333 0.276-2.070 0.276-0.527 0-1.041-0.052-1.539-0.15l0.050 0.008c1.037 3.155 3.927 5.405 7.352 5.47l0.008 0c-2.664 2.105-6.072 3.377-9.776 3.377-0.665 0-1.321-0.041-1.965-0.121l0.077 0.008c3.408 2.219 7.578 3.539 12.056 3.539 0.007 0 0.014 0 0.022 0h-0.001c14.627 0 22.891-12.354 22.392-23.434 1.548-1.128 2.852-2.479 3.895-4.022l0.036-0.057z"></path>
</symbol>
<symbol id="icon-logo-bookmark" viewBox="0 0 189 32">
<path fill="currentColor" d="M47.36 8.063h6.691c0.955 0 1.836 0.198 2.639 0.596 0.805 0.398 1.437 0.941 1.9 1.626s0.694 1.434 0.694 2.245c0 0.86-0.211 1.605-0.634 2.235-0.422 0.628-0.975 1.111-1.66 1.445v0.192c0.892 0.317 1.6 0.823 2.126 1.517 0.525 0.692 0.788 1.524 0.788 2.496 0 0.941-0.251 1.773-0.753 2.497-0.512 0.727-1.199 1.299-2.001 1.661l-0.031 0.012c-0.851 0.39-1.796 0.585-2.831 0.585h-6.929v-17.107zM53.811 15.039c0.701 0 1.262-0.195 1.684-0.585s0.634-0.881 0.634-1.469c0-0.573-0.204-1.055-0.609-1.446-0.407-0.389-0.945-0.585-1.613-0.585h-3.322v4.086h3.226zM54.17 22.231c0.781 0 1.39-0.204 1.828-0.609s0.657-0.936 0.657-1.588c0-0.653-0.223-1.187-0.668-1.601-0.447-0.415-1.084-0.621-1.912-0.621h-3.488v4.42h3.584zM70.716 25.553c-1.673 0-3.19-0.394-4.552-1.183-1.35-0.783-2.44-1.881-3.192-3.196l-0.022-0.042c-0.781-1.37-1.171-2.875-1.171-4.516 0-1.64 0.39-3.145 1.171-4.516 0.774-1.357 1.863-2.454 3.172-3.215l0.041-0.022c1.364-0.788 2.88-1.183 4.554-1.183 1.672 0 3.19 0.394 4.552 1.183 1.35 0.784 2.439 1.881 3.191 3.196l0.022 0.042c0.781 1.37 1.171 2.875 1.171 4.515 0 1.641-0.39 3.146-1.171 4.516-0.774 1.357-1.863 2.455-3.172 3.216l-0.041 0.022c-1.362 0.788-2.88 1.183-4.552 1.183zM70.716 22.493c0.017 0 0.038 0 0.059 0 1.040 0 2.016-0.275 2.86-0.755l-0.028 0.015c0.874-0.495 1.576-1.202 2.053-2.052l0.014-0.027c0.502-0.892 0.753-1.912 0.753-3.059s-0.251-2.166-0.753-3.058c-0.491-0.877-1.194-1.583-2.041-2.065l-0.026-0.014c-0.816-0.466-1.792-0.741-2.834-0.741-0.020 0-0.040 0-0.060 0l0.003-0c-0.019-0-0.041-0-0.063-0-1.036 0-2.007 0.275-2.845 0.756l0.028-0.015c-0.868 0.498-1.566 1.204-2.040 2.052l-0.014 0.027c-0.502 0.892-0.753 1.911-0.753 3.059 0 1.146 0.251 2.166 0.753 3.058 0.489 0.875 1.187 1.581 2.028 2.065l0.026 0.014c0.81 0.466 1.78 0.74 2.815 0.74 0.023 0 0.046-0 0.069-0l-0.003 0zM90.368 25.553c-1.673 0-3.19-0.394-4.552-1.183-1.35-0.784-2.439-1.881-3.191-3.196l-0.022-0.042c-0.781-1.37-1.171-2.875-1.171-4.516 0-1.64 0.39-3.145 1.17-4.516 0.774-1.357 1.864-2.454 3.173-3.215l0.041-0.022c1.362-0.788 2.88-1.183 4.552-1.183 1.673 0 3.19 0.394 4.552 1.183 1.35 0.784 2.439 1.881 3.191 3.196l0.022 0.042c0.781 1.37 1.171 2.875 1.171 4.515 0 1.641-0.39 3.146-1.17 4.516-0.774 1.358-1.864 2.455-3.173 3.216l-0.041 0.022c-1.362 0.788-2.88 1.183-4.552 1.183zM90.368 22.493c0.018 0 0.039 0 0.060 0 1.040 0 2.016-0.275 2.86-0.755l-0.028 0.015c0.873-0.496 1.575-1.202 2.052-2.052l0.014-0.027c0.502-0.892 0.753-1.912 0.753-3.059s-0.251-2.166-0.753-3.058c-0.491-0.877-1.193-1.583-2.040-2.065l-0.026-0.014c-0.816-0.466-1.792-0.741-2.834-0.741-0.020 0-0.041 0-0.061 0l0.003-0c-0.019-0-0.041-0-0.063-0-1.036 0-2.007 0.275-2.845 0.756l0.028-0.015c-0.868 0.498-1.566 1.204-2.040 2.052l-0.014 0.027c-0.502 0.892-0.753 1.911-0.753 3.059 0 1.146 0.251 2.166 0.753 3.058 0.489 0.875 1.187 1.581 2.030 2.065l0.026 0.014c0.81 0.466 1.78 0.74 2.815 0.74 0.023 0 0.045-0 0.067-0l-0.003 0zM102.182 8.064h3.226v7.334h0.192l6.259-7.334h3.895v0.191l-6.186 7.071 6.833 9.654v0.191h-3.942l-5.112-7.287-1.935 2.269v5.018h-3.226v-17.107zM120.037 7.68h4.157l4.539 12.019h0.192l4.538-12.019h4.182v17.107h-3.201v-8.434l0.192-2.843h-0.192l-4.349 11.277h-2.509l-4.372-11.277h-0.191l0.192 2.843v8.435h-3.178v-17.108zM146.661 7.68h3.704l6.427 17.107h-3.56l-1.434-4.086h-6.547l-1.434 4.086h-3.56l6.403-17.107zM150.748 17.74l-1.505-4.301-0.622-2.056h-0.191l-0.621 2.056-1.53 4.301h4.467zM159.428 7.68h6.236c1.115 0 2.107 0.23 2.975 0.692s1.541 1.103 2.019 1.924c0.479 0.819 0.717 1.748 0.717 2.784 0 1.098-0.346 2.074-1.039 2.926-0.677 0.832-1.561 1.47-2.575 1.839l-0.041 0.013-0.023 0.166 4.588 6.572v0.192h-3.704l-4.42-6.428h-1.505v6.427h-3.226v-17.107zM165.64 15.398c0.733 0 1.331-0.224 1.792-0.669 0.462-0.447 0.694-1.011 0.694-1.697 0-0.653-0.22-1.21-0.658-1.672s-1.032-0.694-1.779-0.694h-3.035v4.731h2.986zM174.894 7.68h3.226v7.334h0.192l6.259-7.334h3.895v0.192l-6.189 7.072 6.835 9.652v0.192h-3.942l-5.115-7.288-1.935 2.269v5.018h-3.226v-17.107z"></path>
<path fill="#5267df" d="M32 16c0 8.837-7.163 16-16 16s-16-7.163-16-16c0-8.837 7.163-16 16-16s16 7.163 16 16z"></path>
<path fill="#fff" d="M11.52 11.52v12.8l4.531-4.403 4.529 4.403v-12.8c0-1.414-1.146-2.56-2.56-2.56v0h-3.94c-1.414 0-2.56 1.146-2.56 2.56v0z"></path>
</symbol>
<symbol id="icon-logo-chrome" viewBox="0 0 33 32">
<path fill="#e16b5a" d="M16.246 0.003s9.603-0.424 14.693 9.040h-15.509s-2.929-0.095-5.426 3.39c-0.72 1.46-1.488 2.966-0.624 5.932-1.248-2.071-6.627-11.252-6.627-11.252s3.794-6.733 13.493-7.11z"></path>
<path fill="#ffd464" d="M30.439 24.030s-4.428 8.366-15.332 7.954c1.345-2.282 7.757-13.169 7.757-13.169s1.548-2.44-0.28-6.303c-0.929-1.341-3.744-2.748-6.796-3.497 2.454-0.024 15.12 0.002 15.12 0.002s4.049 6.589-0.469 15.013z"></path>
<path fill="#74b340" d="M2.121 24.094s-5.174-7.944 0.641-16.997l7.752 13.172s1.38 2.534 5.706 2.913c1.649-0.118 3.364-0.218 5.552-2.434-1.206 2.096-6.628 11.252-6.628 11.252s-7.843 0.143-13.024-7.906z"></path>
<path fill="#fff" d="M23.587 16.13c0 4.004-3.304 7.25-7.38 7.25s-7.38-3.246-7.38-7.25c0-4.004 3.304-7.25 7.38-7.25s7.38 3.246 7.38 7.25z"></path>
<path fill="#2995cc" d="M22.058 16.13c0 3.176-2.621 5.75-5.853 5.75s-5.853-2.574-5.853-5.75c0-3.176 2.621-5.75 5.853-5.75s5.853 2.574 5.853 5.75z"></path>
<path fill="#268cbf" d="M16.206 10.381c-0.116 0-0.232 0.004-0.346 0.011 3.071 0.176 5.507 2.678 5.507 5.739s-2.436 5.564-5.507 5.74c0.115 0.006 0.23 0.011 0.347 0.011 3.232 0 5.853-2.575 5.853-5.75s-2.621-5.75-5.853-5.75z"></path>
</symbol>
<symbol id="icon-logo-firefox" viewBox="0 0 34 32">
<path fill="#ff9800" d="M33.6 16c0 9.236-7.524 16-16.8 16s-16.8-7.492-16.8-16.728c0-2.894 0.746-5.629 2.045-8 0.017-0.046 0.042-0.085 0.074-0.117l-0 0c-0.731-1.089-1.052-3.853 0.802-5.702 0 0.772 0.468 2.095 0.993 3.084 0.424 0.786 0.876 1.353 1.197 1.28 0.731-0.174 3.286-0.174 3.652 0 0.601-0.77 2.062-2.909 4.385-2.909-1.3 1.294-5.025 5.819 1.461 5.819h1.462l-4.385 2.908s0.498 0.96 0 1.455c-0.554-0.554-2.921 0.596-2.921 2.181s1.695 3.636 5.114 3.636c3.419 0 2.556-1.455 4.383-1.455s2.19 1.455 2.19 1.455c-2.514 0-4.339 2.909-7.304 2.909 1.461 1.076 2.426 1.455 4.383 1.455 4.836 0 8.765-3.912 8.765-8.728 0-1.949-0.643-3.739-1.724-5.192 1.95 1.459 3.264 3.675 3.505 6.204l0.003 0.035c0.26-0.969 0.409-2.081 0.409-3.228v-0c0-4.379-1.869-10.168-5.114-12.364 4.675 1.395 10.225 5.909 10.225 14.545v1.455z"></path>
</symbol>
<symbol id="icon-logo-opera" viewBox="0 0 31 32">
<path fill="#eb6060" d="M15.36 32c-8.483 0-15.36-7.164-15.36-16s6.877-16 15.36-16 15.36 7.164 15.36 16-6.877 16-15.36 16zM15.36 28.8c4.418 0 8-5.731 8-12.8s-3.582-12.8-8-12.8-8 5.731-8 12.8 3.582 12.8 8 12.8z"></path>
</symbol>
</defs>
</svg>
